<svg xmlns="http://www.w3.org/2000/svg" xmlns:xlink="http://www.w3.org/1999/xlink" version="1.1" x="0px" y="0px" viewBox="0 0 100 100" enable-background="new 0 0 100 100" xml:space="preserve"><ellipse transform="matrix(0.3064 -0.9519 0.9519 0.3064 -12.8607 106.8809)" fill="#000000" cx="66.908" cy="62.265" rx="4.519" ry="5.932"></ellipse><path fill="#000000" d="M68.91,71.75c-7.604-1.508-11.193-12.25-11.437-13.229c1.406-0.169,2.632-0.982,3.494-2.338  c1.09-1.714,1.404-3.977,0.747-5.379c-2.54-5.437-5.332-7.826-9-10.608c-0.832-0.631-1.713-0.952-2.619-0.952  c-2.173,0-3.607,1.77-4.436,3.275c-2.788-5.876-4.138-13.085-4.263-19.757c-0.007-0.354-0.09-0.683-0.217-0.986  c-0.016-0.043-0.026-0.085-0.047-0.127c-0.189-0.399-0.477-0.732-0.811-0.998c-1.009-1.266-3.098-4.665-2.231-10.377  c0.12-0.787-0.421-1.523-1.209-1.643c-0.778-0.117-1.523,0.422-1.643,1.21c-0.775,5.104,0.484,8.741,1.729,10.949  c-0.598,0.663-0.997,1.781-0.932,3.522c0.139,3.675,2.879,13.545,3.969,17.338c-0.544-0.405-1.045-0.806-1.478-1.206  c-2.329-2.15-4.782-7.793-5.916-14.75c-0.288-1.768-1.114-2.771-1.989-2.961c-1.353-1.276-3.783-4.281-3.867-9.48  c-0.013-0.796-0.658-1.398-1.466-1.419c-0.796,0.013-1.432,0.67-1.419,1.466c0.096,5.898,2.741,9.51,4.515,11.279  c-0.285,0.812-0.453,1.879-0.407,3.247c0.11,3.288,3.486,12.309,5.882,15.685c4.501,6.34,14.446,16.643,14.789,18.806  c0.659,4.146,0.472,9.854,2.58,11.714c2.465,2.171,7.976,6.723,10.081,7.325c3.917,1.12,5.923-1.543,2.16-3.752  c-1.962-1.152-6.451-3.672-7.302-5.255c-0.481-0.896,0.028-4.085-0.165-6.042c0.621,1.448,3.626,5.126,4.25,5.88  c1.482,1.791,4.404,2.83,6.628,3.51C69.919,76.625,75.227,73.002,68.91,71.75z M50.089,43.09c0.001,0,0.101,0.018,0.301,0.169  c3.326,2.523,5.668,4.524,7.806,9.083c0.062,0.271-0.076,1.296-0.612,1.968c-0.21,0.263-0.387,0.353-0.513,0.383l-8.215-9.978  C49.269,43.891,49.803,43.161,50.089,43.09z"></path><path fill="#000000" d="M58.877,28.796c-0.096,0.097-0.144,0.156-0.144,0.156c-0.331,0.397-0.292,0.988,0.093,1.333  c0.383,0.346,0.97,0.33,1.33-0.041l0.108-0.115c0.302-0.303,1.394-1.255,3.11-1.255c0.852,0,1.751,0.235,2.674,0.699  c1.038,0.521,3.793,1.734,6.961,1.734c3.251,0,5.943-1.313,7.786-3.797c0.265-0.358,0.25-0.851-0.037-1.192  c-0.13-0.155-3.244-3.783-8.431-3.783c-1.376,0-2.782,0.261-4.178,0.776c-1.48,0.546-2.731,0.812-3.825,0.812  c-1.954,0-3.285-0.812-5.201-2.411c-0.394-0.328-0.977-0.29-1.323,0.087c-0.348,0.377-0.338,0.961,0.021,1.326  C57.853,23.159,61.012,26.423,58.877,28.796z"></path><path fill="#000000" d="M25.592,63.711c-1.288,0-2.642,0.259-4.026,0.77c-4.087,1.508-6.783,1.524-9.163-0.025  c-0.511-0.426-0.915-0.679-0.933-0.689c-0.429-0.269-0.992-0.157-1.288,0.252c-0.296,0.41-0.225,0.978,0.163,1.302  c0.296,0.247,0.6,0.475,0.903,0.678c1.035,0.883,2.091,2.175,1.431,3.426c-0.395,0.44-0.605,0.793-0.629,0.834  c-0.244,0.42-0.138,0.956,0.249,1.25c0.389,0.295,0.934,0.253,1.271-0.095c0.261-0.268,0.482-0.549,0.662-0.835  c0.552-0.571,1.451-1.218,2.693-1.218c0.683,0,1.417,0.195,2.184,0.581c1.539,0.773,4.403,2.213,7.37,2.214c0,0,0,0,0,0  c2.668,0,4.872-1.146,6.548-3.408c0.233-0.315,0.253-0.74,0.048-1.075C32.979,67.511,30.597,63.711,25.592,63.711z"></path><path fill="#000000" d="M89.774,40.7c-0.104-0.124-2.592-3.022-6.732-3.022c-1.099,0-2.219,0.208-3.332,0.618  c-3.024,1.115-5.222,1.156-7.015,0.087c-0.475-0.385-0.856-0.613-0.899-0.639c-0.431-0.255-0.986-0.136-1.275,0.274  c-0.289,0.41-0.215,0.972,0.17,1.293c0.285,0.237,0.583,0.454,0.885,0.642c0.73,0.615,1.169,1.253,1.205,1.758  c0.022,0.304-0.103,0.603-0.381,0.914c-0.078,0.079-0.117,0.126-0.117,0.126c-0.33,0.397-0.29,0.988,0.094,1.333  c0.384,0.346,0.969,0.33,1.329-0.041l0.082-0.087c0.223-0.222,1.019-0.917,2.275-0.917c0.63,0,1.3,0.176,1.99,0.523  c0.822,0.413,3.005,1.374,5.519,1.374c0,0,0,0,0,0c2.604,0,4.761-1.053,6.238-3.046C90.076,41.534,90.061,41.041,89.774,40.7z"></path></svg>